<?xml version="1.0" encoding="utf-8"?>
<!-- Generator: Adobe Illustrator 23.1.1, SVG Export Plug-In . SVG Version: 6.00 Build 0)  -->
<svg version="1.1"
	 id="Layer_1" xmlns:cc="http://creativecommons.org/ns#" xmlns:dc="http://purl.org/dc/elements/1.1/" xmlns:inkscape="http://www.inkscape.org/namespaces/inkscape" xmlns:rdf="http://www.w3.org/1999/02/22-rdf-syntax-ns#" xmlns:sodipodi="http://sodipodi.sourceforge.net/DTD/sodipodi-0.dtd" xmlns:svg="http://www.w3.org/2000/svg"
	 xmlns="http://www.w3.org/2000/svg" xmlns:xlink="http://www.w3.org/1999/xlink" x="0px" y="0px" viewBox="0 0 100 40.8"
	 style="enable-background:new 0 0 100 40.8;" xml:space="preserve">
<style type="text/css">
	.st0{fill:none;stroke:#000000;stroke-width:0.6919;stroke-linecap:round;stroke-linejoin:round;stroke-miterlimit:1.9788;}
	.st1{fill:none;stroke:#000000;stroke-width:0.6919;stroke-linecap:round;stroke-miterlimit:1.9788;}
	.st2{fill:none;stroke:#000000;stroke-width:0.6885;stroke-linecap:round;stroke-miterlimit:1.9788;}
	.st3{fill:none;stroke:#000000;stroke-width:0.6787;stroke-linecap:round;stroke-miterlimit:1.9788;}
	.st4{fill:none;stroke:#000000;stroke-width:0.6919;stroke-miterlimit:1.9788;}
	.st5{fill-rule:evenodd;clip-rule:evenodd;stroke:#000000;stroke-width:1.6709;stroke-linecap:round;stroke-linejoin:round;}
	.st6{fill-rule:evenodd;clip-rule:evenodd;stroke:#000000;stroke-width:1.6323;stroke-linecap:round;stroke-linejoin:round;}
	.st7{fill-rule:evenodd;clip-rule:evenodd;stroke:#000000;stroke-width:0.1372;stroke-linecap:round;stroke-linejoin:round;}
	.st8{fill:none;stroke:#000000;stroke-width:0.2076;stroke-miterlimit:1.9788;}
</style>
<g transform="translate(0,-952.36216)">
	<g transform="matrix(0.49470005,0,0,0.49470005,-135.70984,747.1563)">
		<path class="st0" d="M277,489.8h176.6V482H277V489.8z"/>
		<path class="st1" d="M276.9,481.9l29.3-57.1"/>
		<path class="st2" d="M453.6,482.3l21.1-57"/>
		<path class="st1" d="M453.7,489.7l21.3-57.8"/>
		<path class="st3" d="M474.8,425.3l0.2,6.6"/>
		<path class="st1" d="M306.6,424.8l168.1,0.4"/>
		<path class="st4" d="M314.3,451.6h6.8l2.1-3.6h2.6l-4.2,7.3h2.6l4.2-7.3h2.6l-4.2,7.3h2.6l4.2-7.3h2.7l-4.2,7.3h2.6l4.2-7.3h2.6
			l-4.2,7.3h2.6l4.2-7.2h2.6l-4.2,7.3h2.6l2.1-3.6h24.1"/>
		
			<ellipse transform="matrix(0.759 -0.6511 0.6511 0.759 -218.3734 312.437)" class="st5" cx="312.8" cy="451.2" rx="2.3" ry="1.7"/>
		<polygon class="st6" points="397.3,437.4 383.5,468.2 362.6,468.2 376.4,437.4 		"/>
		
			<ellipse transform="matrix(0.759 -0.6511 0.6511 0.759 -200.4792 341.1455)" class="st5" cx="360.5" cy="441.4" rx="2.3" ry="1.7"/>
		<polygon class="st7" points="357.1,450.2 355.8,453.2 354.3,453.2 355.7,450.2 		"/>
		<path class="st8" d="M356.2,450.5l3.9-8.6"/>
		<path class="st4" d="M386.1,460.5h48.5"/>
		
			<ellipse transform="matrix(0.759 -0.6511 0.6511 0.759 -194.8979 394.8223)" class="st5" cx="435.8" cy="460.7" rx="2.3" ry="1.7"/>
		
			<ellipse transform="matrix(0.759 -0.6511 0.6511 0.759 -208.7905 377.0929)" class="st5" cx="404.9" cy="470.6" rx="2.3" ry="1.7"/>
		<polygon class="st7" points="408.3,461.7 409.7,458.7 411.2,458.7 409.8,461.7 		"/>
		<path class="st8" d="M409.3,461.4l-3.9,8.6"/>
		<path class="st4" d="M393,443.4h48.5"/>
		
			<ellipse transform="matrix(0.759 -0.6511 0.6511 0.759 -182.1289 395.1965)" class="st5" cx="442.7" cy="443.6" rx="2.3" ry="1.7"/>
		<ellipse transform="matrix(0.759 -0.6511 0.6511 0.759 -180.1169 379.4577)" class="st5" cx="422.5" cy="433" rx="2.3" ry="1.7"/>
		<polygon class="st7" points="419.1,441.8 417.7,444.9 416.2,444.9 417.6,441.8 		"/>
		<path class="st8" d="M418.1,442.2l3.9-8.6"/>
	</g>
</g>
</svg>
